<svg width="40" height="41" viewBox="0 0 40 41" fill="none" xmlns="http://www.w3.org/2000/svg">
<path fill-rule="evenodd" clip-rule="evenodd" d="M3.60246 7.43586C4.41511 6.6232 5.51731 6.16666 6.66658 6.16666H18.3333C18.8855 6.16666 19.3333 6.61437 19.3333 7.16666C19.3333 7.71894 18.8855 8.16666 18.3333 8.16666H6.66658C6.04775 8.16666 5.45425 8.41249 5.01667 8.85007C4.57908 9.28766 4.33325 9.88115 4.33325 10.5V33.8333C4.33325 34.4522 4.57908 35.0457 5.01667 35.4832C5.45425 35.9208 6.04775 36.1667 6.66658 36.1667H29.9999C30.6188 36.1667 31.2122 35.9208 31.6498 35.4832C32.0874 35.0457 32.3333 34.4522 32.3333 33.8333V22.1667C32.3333 21.6144 32.781 21.1667 33.3333 21.1667C33.8855 21.1667 34.3333 21.6144 34.3333 22.1667V33.8333C34.3333 34.9826 33.8767 36.0848 33.064 36.8975C32.2514 37.7101 31.1492 38.1667 29.9999 38.1667H6.66658C5.51731 38.1667 4.41511 37.7101 3.60246 36.8975C2.7898 36.0848 2.33325 34.9826 2.33325 33.8333V10.5C2.33325 9.35072 2.7898 8.24852 3.60246 7.43586Z" fill="#0F0F49"/>
<path fill-rule="evenodd" clip-rule="evenodd" d="M33.3333 4.63113C32.6608 4.63113 32.0159 4.89827 31.5404 5.37377L15.9029 21.0112L14.7076 25.7923L19.4887 24.597L35.1262 8.95956C35.6017 8.48406 35.8688 7.83913 35.8688 7.16667C35.8688 6.4942 35.6017 5.84928 35.1262 5.37377C34.6507 4.89827 34.0057 4.63113 33.3333 4.63113ZM30.1262 3.95956C30.9767 3.10898 32.1304 2.63113 33.3333 2.63113C34.5362 2.63113 35.6898 3.10898 36.5404 3.95956C37.391 4.81014 37.8688 5.96377 37.8688 7.16667C37.8688 8.36957 37.391 9.5232 36.5404 10.3738L20.707 26.2071C20.5789 26.3353 20.4183 26.4262 20.2425 26.4701L13.5758 28.1368C13.235 28.222 12.8745 28.1222 12.6262 27.8738C12.3778 27.6254 12.2779 27.2649 12.3631 26.9241L14.0298 20.2575C14.0738 20.0816 14.1647 19.9211 14.2928 19.7929L30.1262 3.95956Z" fill="#0F0F49"/>
</svg>
